#!OML:ASF F:\VICON\USERDATA\INSTALL\Justin_Nancy\Justin_Nancy.ASF
:FULLY-SPECIFIED
:DEGREES
206
root -9.18258 17.4274 17.7348 0.319325 -39.9181 -0.54185
lowerback 7.32497 0.272828 -1.94894
upperback -0.509488 0.332977 3.31505
thorax -4.67717 0.250714 4.5209
lowerneck -15.5604 -4.61464 -10.5553
upperneck 23.4558 -5.5056 6.50263
head 10.5813 -2.76546 3.32935
rclavicle -4.82798e-014 1.74931e-014
rhumerus -41.7809 -22.0019 -70.0039
rradius 26.8832
rwrist 3.29488
rhand -15.9272 10.6441
rfingers 7.12502
rthumb 10.2704 -19.0852
lclavicle -4.82798e-014 1.74931e-014
lhumerus -26.2999 6.47928 87.2796
lradius 29.5069
lwrist -8.67911
lhand -18.301 24.8012
lfingers 7.12502
lthumb 7.97985 54.6305
rfemur -14.0936 5.35419 26.9931
rtibia 26.5871
rfoot -7.09165 -6.56808
rtoes 1.09028
lfemur -16.8259 -2.5482 -17.2401
ltibia 66.4285
lfoot 5.94023 -8.61128
ltoes -7.54488
207
root -9.3414 17.431 17.9103 0.421283 -40.2015 -0.912916
lowerback 7.25297 0.333215 -1.62817
upperback -0.424081 0.441559 3.37393
thorax -4.55509 0.293455 4.38662
lowerneck -15.7233 -4.57417 -10.6147
upperneck 23.7105 -5.37227 6.29711
head 10.69 -2.73417 3.28552
rclavicle -3.69988e-014 1.43125e-014
rhumerus -40.746 -20.9739 -71.0042
rradius 27.151
rwrist 2.86481
rhand -16.0911 10.3377
rfingers 7.12502
rthumb 10.1123 -19.3993
lclavicle -3.69988e-014 1.43125e-014
lhumerus -26.8652 6.83424 87.2842
lradius 29.072
lwrist -9.30293
lhand -18.642 24.5427
lfingers 7.12502
lthumb 7.65075 54.3843
rfemur -12.8657 5.43001 27.4522
rtibia 26.3864
rfoot -7.89324 -6.73622
rtoes 0.552627
lfemur -18.0949 -2.04311 -16.9942
ltibia 66.7395
lfoot 3.74579 -7.12556
ltoes -8.70185
208
root -9.50089 17.4409 18.0852 0.407132 -40.639 -0.91079
lowerback 7.22629 0.45511 -1.65279
upperback -0.483504 0.603085 3.35919
thorax -4.61659 0.376075 4.36741
lowerneck -15.4865 -4.54663 -10.7175
upperneck 23.5981 -5.33102 6.30984
head 10.6027 -2.72642 3.31449
rclavicle -2.39536e-014 1.98785e-014
rhumerus -39.9352 -21.0004 -71.2228
rradius 27.0223
rwrist 3.80134
rhand -15.6768 10.9292
rfingers 7.12502
rthumb 10.5119 -18.7879
lclavicle -2.39536e-014 1.98785e-014
lhumerus -27.5202 7.00107 87.2726
lradius 28.7649
lwrist -8.95578
lhand -18.3036 25.2123
lfingers 7.12502
lthumb 7.97732 55.0417
rfemur -11.8027 5.70498 27.5722
rtibia 26.2057
rfoot -8.71685 -6.7934
rtoes 0.957263
lfemur -19.5336 -1.60269 -17.0538
ltibia 66.8664
lfoot 2.14986 -5.85865
ltoes -10.2709
209
root -9.65674 17.4399 18.2518 0.547608 -41.0006 -1.10286
lowerback 7.30916 0.574201 -1.58134
upperback -0.603491 0.772352 3.39094
thorax -4.80345 0.463349 4.34202
lowerneck -15.1856 -4.5033 -10.6729
upperneck 23.4972 -5.2951 6.24249
head 10.5008 -2.71866 3.28969
rclavicle -5.6107e-014 4.77083e-015
rhumerus -39.101 -20.3677 -71.8479
rradius 27.1308
rwrist 3.91021
rhand -15.7342 10.9473
rfingers 7.12502
rthumb 10.4565 -18.7727
lclavicle -5.6107e-014 4.77083e-015
lhumerus -28.2706 7.12317 87.2403
lradius 28.5592
lwrist -8.5126
lhand -17.6788 25.9111
lfingers 7.12502
lthumb 8.58028 55.7168
rfemur -10.873 6.02509 27.882
rtibia 26.0958
rfoot -9.4057 -6.97119
rtoes 1.46269
lfemur -21.0453 -1.22055 -16.9423
ltibia 66.8202
lfoot 0.887502 -4.5892
ltoes -10.8594
210
root -9.80886 17.4276 18.4188 0.578196 -41.1632 -1.16831
lowerback 7.33237 0.562097 -1.57711
upperback -0.67659 0.760711 3.45238
thorax -4.89308 0.460655 4.4064
lowerneck -15.2238 -4.40935 -10.7458
upperneck 23.714 -5.11855 6.12131
head 10.5696 -2.66178 3.28588
rclavicle 1.4146e-013 -6.36111e-015
rhumerus -38.3774 -19.2068 -72.4722
rradius 27.4659
rwrist 4.03925
rhand -15.5618 11.5511
rfingers 7.12502
rthumb 10.6229 -18.1604
lclavicle 1.4146e-013 -6.36111e-015
lhumerus -29.0783 7.59059 87.2208
lradius 28.3034
lwrist -8.6252
lhand -17.6643 26.1673
lfingers 7.12502
lthumb 8.59434 55.9723
rfemur -9.99315 6.16633 28.0856
rtibia 26.1008
rfoot -10.0998 -7.28584
rtoes 1.50253
lfemur -22.4342 -0.869922 -17.0125
ltibia 66.5756
lfoot -0.404118 -2.95051
ltoes -9.63537
211
root -9.96103 17.4065 18.5978 0.842581 -41.4381 -1.62823
lowerback 7.12642 0.679117 -1.01313
upperback -0.543707 0.959867 3.42454
thorax -4.64462 0.538436 4.03241
lowerneck -15.4307 -4.49747 -10.8435
upperneck 23.7569 -5.24383 6.31026
head 10.6458 -2.70224 3.35149
rclavicle -6.56486e-014 1.43125e-014
rhumerus -37.4141 -18.4916 -73.3258
rradius 27.9795
rwrist 3.40794
rhand -15.3963 11.6263
rfingers 7.12502
rthumb 10.7825 -18.0769
lclavicle -6.56486e-014 1.43125e-014
lhumerus -29.4967 7.62279 87.2273
lradius 27.9108
lwrist -8.57743
lhand -18.1313 25.9191
lfingers 7.12502
lthumb 8.14366 55.7422
rfemur -9.06099 6.35103 28.5883
rtibia 26.175
rfoot -10.8369 -7.48138
rtoes 1.44412
lfemur -23.6468 -0.34976 -16.8304
ltibia 66.1907
lfoot -1.94586 -0.92589
ltoes -6.16525
212
root -10.1104 17.3855 18.7748 0.986971 -41.679 -1.83482
lowerback 6.96209 0.847035 -0.540494
upperback -0.469212 1.21302 3.24794
thorax -4.47913 0.64756 3.55104
lowerneck -15.2928 -4.53492 -10.7881
upperneck 23.6227 -5.36572 6.48122
head 10.5843 -2.73362 3.38661
rclavicle 4.05024e-015 -1.82882e-014
rhumerus -36.4885 -18.3477 -74.0298
rradius 28.3578
rwrist 3.06441
rhand -15.1097 11.2803
rfingers 7.12502
rthumb 11.0589 -18.4083
lclavicle 4.05024e-015 -1.82882e-014
lhumerus -29.9818 7.20265 87.2231
lradius 27.6159
lwrist -8.29479
lhand -18.3891 25.8408
lfingers 7.12502
lthumb 7.89478 55.6734
rfemur -8.14932 6.399 28.8457
rtibia 26.2134
rfoot -11.5673 -7.54232
rtoes 1.54869
lfemur -24.8528 0.0295408 -16.8938
ltibia 65.6501
lfoot -3.70228 0.730211
ltoes -4.31668
213
root -10.2582 17.3674 18.9438 1.1905 -41.9271 -1.91233
lowerback 6.88287 0.915926 -0.337921
upperback -0.586292 1.32245 3.20759
thorax -4.55795 0.69829 3.38276
lowerneck -14.8465 -4.45639 -10.9589
upperneck 23.4106 -5.26774 6.54358
head 10.418 -2.70298 3.45386
rclavicle -8.10048e-015 -3.97569e-015
rhumerus -35.6974 -17.5751 -74.6977
rradius 28.8237
rwrist 2.68324
rhand -15.4099 10.2727
rfingers 7.12502
rthumb 10.7694 -19.4312
lclavicle -8.10048e-015 -3.97569e-015
lhumerus -30.6919 7.39498 87.1718
lradius 27.2411
lwrist -8.36416
lhand -18.282 25.9439
lfingers 7.12502
lthumb 7.99816 55.7726
rfemur -7.42517 6.37198 28.9957
rtibia 26.1758
rfoot -12.1628 -7.61167
rtoes 0.765467
lfemur -26.2373 0.42304 -17.0386
ltibia 64.9291
lfoot -5.2235 1.96823
ltoes -5.25528
214
root -10.4074 17.3476 19.1017 1.80886 -42.2033 -2.8848
lowerback 7.13898 0.975932 0.334715
upperback -0.609575 1.47022 3.38988
thorax -4.72418 0.756633 3.17439
lowerneck -14.8505 -4.39088 -10.7456
upperneck 23.3048 -5.15073 6.2674
head 10.3548 -2.65946 3.33275
rclavicle -6.77359e-014 -3.33958e-014
rhumerus -34.7862 -17.0087 -75.2961
rradius 29.2527
rwrist 2.63
rhand -15.7716 9.66981
rfingers 7.12502
rthumb 10.4205 -20.052
lclavicle -6.77359e-014 -3.33958e-014
lhumerus -31.1518 7.64662 87.0452
lradius 26.8528
lwrist -8.53152
lhand -17.5606 26.3762
lfingers 7.12502
lthumb 8.69436 56.1771
rfemur -6.55072 6.65362 29.9784
rtibia 26.1338
rfoot -12.5321 -7.91105
rtoes -0.443799
lfemur -27.4755 0.748479 -16.3008
ltibia 63.9603
lfoot -6.41631 2.94481
ltoes -4.85661
215
root -10.5575 17.3214 19.267 2.24315 -42.4765 -3.54742
lowerback 7.29541 1.02363 0.796208
upperback -0.598939 1.58025 3.49015
thorax -4.79796 0.799617 3.00449
lowerneck -15.0789 -4.37503 -10.5606
upperneck 23.3549 -5.10383 6.08518
head 10.402 -2.63831 3.24048
rclavicle 5.47155e-014 1.03368e-014
rhumerus -33.9001 -16.0477 -76.0672
rradius 29.9025
rwrist 2.08198
rhand -15.8404 9.6414
rfingers 7.12502
rthumb 10.3541 -20.0837
lclavicle 5.47155e-014 1.03368e-014
lhumerus -31.6734 7.83052 86.9378
lradius 26.5755
lwrist -8.42931
lhand -17.0474 26.7867
lfingers 7.12502
lthumb 9.1896 56.5664
rfemur -5.61879 6.83358 30.6764
rtibia 26.0561
rfoot -12.9196 -8.23565
rtoes -1.97051
lfemur -28.4876 0.940746 -15.8767
ltibia 62.6225
lfoot -7.17734 3.97591
ltoes -6.42176
216
root -10.7105 17.2911 19.4433 2.21479 -42.7346 -3.48528
lowerback 7.15203 1.10714 0.855442
upperback -0.557594 1.68889 3.43679
thorax -4.67543 0.85082 2.90462
lowerneck -15.1388 -4.40821 -10.6656
upperneck 23.424 -5.11046 6.05142
head 10.4423 -2.65444 3.24504
rclavicle 3.44394e-014 2.38542e-014
rhumerus -33.0809 -14.7973 -76.8474
rradius 30.7474
rwrist 0.833646
rhand -15.9577 9.08871
rfingers 7.12502
rthumb 10.241 -20.642
lclavicle 3.44394e-014 2.38542e-014
lhumerus -32.1925 8.09399 86.8775
lradius 26.2446
lwrist -8.04291
lhand -16.3148 27.3715
lfingers 7.12502
lthumb 9.89647 57.1189
rfemur -4.49007 6.92539 30.7019
rtibia 25.8432
rfoot -13.7563 -8.30627
rtoes -0.511476
lfemur -29.2418 1.16883 -16.1354
ltibia 60.9748
lfoot -7.76285 4.97274
ltoes -9.88485
217
root -10.864 17.2666 19.615 2.3241 -43.085 -3.56085
lowerback 7.01591 1.27336 1.0305
upperback -0.479977 1.91505 3.35696
thorax -4.51918 0.956983 2.69965
lowerneck -15.3133 -4.49123 -10.7134
upperneck 23.4375 -5.19207 6.04603
head 10.4905 -2.69291 3.23747
rclavicle -3.29734e-014 8.74653e-015
rhumerus -32.2674 -15.0456 -76.825
rradius 30.9048
rwrist 2.307
rhand -14.9219 10.7772
rfingers 7.12502
rthumb 11.24 -18.9017
lclavicle -3.29734e-014 8.74653e-015
lhumerus -32.498 8.09707 86.8468
lradius 25.6297
lwrist -8.5793
lhand -16.5561 27.0052
lfingers 7.12502
lthumb 9.6637 56.7635
rfemur -3.42161 7.07131 30.8169
rtibia 25.4617
rfoot -14.4933 -8.02142
rtoes 1.87811
lfemur -30.0169 1.48641 -16.2047
ltibia 59.1501
lfoot -8.62549 5.2467
ltoes -11.9075
218
root -11.0136 17.2432 19.7786 2.81133 -43.5102 -4.42995
lowerback 7.22697 1.41202 1.68383
upperback -0.381457 2.16127 3.49028
thorax -4.52708 1.0627 2.44046
lowerneck -15.4643 -4.47658 -10.8555
upperneck 23.396 -5.15875 6.22706
head 10.5103 -2.66532 3.32975
rclavicle 5.05162e-014 -2.06736e-014
rhumerus -31.4923 -14.4507 -77.1564
rradius 31.5238
rwrist 2.45422
rhand -14.6431 11.3769
rfingers 7.12502
rthumb 11.509 -18.2871
lclavicle 5.05162e-014 -2.06736e-014
lhumerus -32.7966 8.27415 86.7566
lradius 25.1798
lwrist -8.95291
lhand -16.7038 26.7614
lfingers 7.12502
lthumb 9.52115 56.5263
rfemur -2.23144 7.28875 31.69
rtibia 24.9234
rfoot -14.6754 -8.10034
rtoes 1.1708
lfemur -30.6971 1.81807 -15.5662
ltibia 57.2362
lfoot -9.49518 5.48031
ltoes -10.1392
219
root -11.1604 17.2185 19.9494 3.6723 -43.8988 -5.93132
lowerback 7.64618 1.48938 2.79974
upperback -0.425784 2.39119 3.78235
thorax -4.78574 1.1478 2.08351
lowerneck -15.351 -4.37267 -10.9213
upperneck 23.4487 -5.03128 6.30314
head 10.4987 -2.6077 3.38905
rclavicle -6.87298e-014 -1.74931e-014
rhumerus -30.998 -13.4527 -77.5993
rradius 32.401
rwrist 1.97936
rhand -14.582 11.3975
rfingers 7.12502
rthumb 11.5678 -18.2632
lclavicle -6.87298e-014 -1.74931e-014
lhumerus -33.4013 8.65496 86.6254
lradius 24.69
lwrist -9.20973
lhand -16.772 26.9765
lfingers 7.12502
lthumb 9.45538 56.7444
rfemur -0.835524 7.49573 33.0521
rtibia 24.2259
rfoot -14.6721 -8.30687
rtoes 0.214468
lfemur -31.2594 2.27119 -14.4325
ltibia 55.2398
lfoot -10.0174 5.71974
ltoes -4.61298
220
root -11.3117 17.1916 20.1295 4.18639 -44.0955 -6.69533
lowerback 7.79595 1.51447 3.41764
upperback -0.494202 2.49602 3.90257
thorax -4.92394 1.18197 1.84695
lowerneck -15.3024 -4.27156 -10.6405
upperneck 23.479 -4.90637 6.05739
head 10.4731 -2.55538 3.27145
rclavicle 6.12505e-014 -1.35174e-014
rhumerus -30.3053 -12.7984 -77.9399
rradius 32.8934
rwrist 1.96441
rhand -14.4162 12.357
rfingers 7.12502
rthumb 11.7277 -17.2947
lclavicle 6.12505e-014 -1.35174e-014
lhumerus -34.083 9.04925 86.4662
lradius 24.4354
lwrist -9.16832
lhand -16.7431 27.432
lfingers 7.12502
lthumb 9.48322 57.1987
rfemur 0.495497 7.4561 33.7306
rtibia 23.4793
rfoot -14.7169 -8.47925
rtoes -1.34268
lfemur -31.7525 2.35512 -13.9048
ltibia 52.8979
lfoot -9.99081 5.86828
ltoes -3.30371
